<svg width="227" height="227" viewBox="0 0 227 227" fill="none" xmlns="http://www.w3.org/2000/svg">
<path d="M3.17543 119C1.21046 115.597 1.21047 111.403 3.17543 108L53.5746 20.7061C55.5395 17.3027 59.1709 15.2061 63.1009 15.2061L163.899 15.2061C167.829 15.2061 171.46 17.3027 173.425 20.7061L223.825 108C225.79 111.403 225.79 115.597 223.825 119L173.425 206.294C171.46 209.697 167.829 211.794 163.899 211.794L63.1009 211.794C59.1709 211.794 55.5395 209.697 53.5746 206.294L3.17543 119Z" fill="url(#paint0_linear_5_44)"/>
<path d="M22.7529 116.5C21.8598 114.953 21.8598 113.047 22.7529 111.5L66.2109 36.2275C67.104 34.6807 68.7549 33.7277 70.541 33.7275L157.459 33.7275C159.245 33.7277 160.896 34.6807 161.789 36.2275L205.247 111.5C206.084 112.95 206.137 114.716 205.404 116.206L205.247 116.5L161.789 191.772C160.896 193.319 159.245 194.272 157.459 194.272L70.541 194.272C68.7549 194.272 67.104 193.319 66.2109 191.772L22.7529 116.5Z" stroke="#82389C" stroke-width="4"/>
<g filter="url(#filter0_d_5_44)">
<path d="M119.653 164.26C116.857 168.088 111.143 168.088 108.347 164.26L58.0415 95.3785C54.6636 90.7532 57.967 84.25 63.6944 84.25L164.306 84.25C170.033 84.25 173.336 90.7532 169.958 95.3785L119.653 164.26Z" fill="url(#paint1_linear_5_44)"/>
</g>
<path d="M110.311 116L105.719 110.912V116H104.263V104.848H105.719V110.016L110.327 104.848H112.167L107.111 110.432L112.215 116H110.311ZM113.297 110.416C113.297 109.328 113.543 108.352 114.033 107.488C114.524 106.613 115.191 105.931 116.033 105.44C116.887 104.949 117.831 104.704 118.865 104.704C120.081 104.704 121.143 104.997 122.049 105.584C122.956 106.171 123.617 107.003 124.033 108.08H122.289C121.98 107.408 121.532 106.891 120.945 106.528C120.369 106.165 119.676 105.984 118.865 105.984C118.087 105.984 117.388 106.165 116.769 106.528C116.151 106.891 115.665 107.408 115.313 108.08C114.961 108.741 114.785 109.52 114.785 110.416C114.785 111.301 114.961 112.08 115.313 112.752C115.665 113.413 116.151 113.925 116.769 114.288C117.388 114.651 118.087 114.832 118.865 114.832C119.676 114.832 120.369 114.656 120.945 114.304C121.532 113.941 121.98 113.424 122.289 112.752H124.033C123.617 113.819 122.956 114.645 122.049 115.232C121.143 115.808 120.081 116.096 118.865 116.096C117.831 116.096 116.887 115.856 116.033 115.376C115.191 114.885 114.524 114.208 114.033 113.344C113.543 112.48 113.297 111.504 113.297 110.416Z" fill="black"/>
<path d="M3.17543 119C1.21046 115.597 1.21047 111.403 3.17543 108L53.5746 20.7061C55.5395 17.3027 59.1709 15.2061 63.1009 15.2061L163.899 15.2061C167.829 15.2061 171.46 17.3027 173.425 20.7061L223.825 108C225.79 111.403 225.79 115.597 223.825 119L173.425 206.294C171.46 209.697 167.829 211.794 163.899 211.794L63.1009 211.794C59.1709 211.794 55.5395 209.697 53.5746 206.294L3.17543 119Z" fill="url(#paint2_linear_5_44)"/>
<path d="M22.7529 116.5C21.8598 114.953 21.8598 113.047 22.7529 111.5L66.2109 36.2275C67.104 34.6807 68.7549 33.7277 70.541 33.7275L157.459 33.7275C159.245 33.7277 160.896 34.6807 161.789 36.2275L205.247 111.5C206.084 112.95 206.137 114.716 205.404 116.206L205.247 116.5L161.789 191.772C160.896 193.319 159.245 194.272 157.459 194.272L70.541 194.272C68.7549 194.272 67.104 193.319 66.2109 191.772L22.7529 116.5Z" stroke="#82389C" stroke-width="4"/>
<g filter="url(#filter1_d_5_44)">
<path d="M119.653 164.26C116.857 168.088 111.143 168.088 108.347 164.26L58.0415 95.3785C54.6636 90.7532 57.967 84.25 63.6944 84.25L164.306 84.25C170.033 84.25 173.336 90.7532 169.958 95.3785L119.653 164.26Z" fill="url(#paint3_linear_5_44)"/>
</g>
<path d="M108.006 119L100.544 110.732V119H98.1778V100.878H100.544V109.276L108.032 100.878H111.022L102.806 109.952L111.1 119H108.006ZM112.858 109.926C112.858 108.158 113.257 106.572 114.054 105.168C114.852 103.747 115.935 102.637 117.304 101.84C118.691 101.043 120.225 100.644 121.906 100.644C123.882 100.644 125.607 101.121 127.08 102.074C128.554 103.027 129.628 104.379 130.304 106.13H127.47C126.968 105.038 126.24 104.197 125.286 103.608C124.35 103.019 123.224 102.724 121.906 102.724C120.641 102.724 119.506 103.019 118.5 103.608C117.495 104.197 116.706 105.038 116.134 106.13C115.562 107.205 115.276 108.47 115.276 109.926C115.276 111.365 115.562 112.63 116.134 113.722C116.706 114.797 117.495 115.629 118.5 116.218C119.506 116.807 120.641 117.102 121.906 117.102C123.224 117.102 124.35 116.816 125.286 116.244C126.24 115.655 126.968 114.814 127.47 113.722H130.304C129.628 115.455 128.554 116.799 127.08 117.752C125.607 118.688 123.882 119.156 121.906 119.156C120.225 119.156 118.691 118.766 117.304 117.986C115.935 117.189 114.852 116.088 114.054 114.684C113.257 113.28 112.858 111.694 112.858 109.926Z" fill="black"/>
<defs>
<filter id="filter0_d_5_44" x="52.6819" y="84.25" width="122.636" height="90.8812" filterUnits="userSpaceOnUse" color-interpolation-filters="sRGB">
<feFlood flood-opacity="0" result="BackgroundImageFix"/>
<feColorMatrix in="SourceAlpha" type="matrix" values="0 0 0 0 0 0 0 0 0 0 0 0 0 0 0 0 0 0 127 0" result="hardAlpha"/>
<feOffset dy="4"/>
<feGaussianBlur stdDeviation="2"/>
<feComposite in2="hardAlpha" operator="out"/>
<feColorMatrix type="matrix" values="0 0 0 0 0 0 0 0 0 0 0 0 0 0 0 0 0 0 0.1 0"/>
<feBlend mode="normal" in2="BackgroundImageFix" result="effect1_dropShadow_5_44"/>
<feBlend mode="normal" in="SourceGraphic" in2="effect1_dropShadow_5_44" result="shape"/>
</filter>
<filter id="filter1_d_5_44" x="52.6819" y="84.25" width="122.636" height="90.8812" filterUnits="userSpaceOnUse" color-interpolation-filters="sRGB">
<feFlood flood-opacity="0" result="BackgroundImageFix"/>
<feColorMatrix in="SourceAlpha" type="matrix" values="0 0 0 0 0 0 0 0 0 0 0 0 0 0 0 0 0 0 127 0" result="hardAlpha"/>
<feOffset dy="4"/>
<feGaussianBlur stdDeviation="2"/>
<feComposite in2="hardAlpha" operator="out"/>
<feColorMatrix type="matrix" values="0 0 0 0 0 0 0 0 0 0 0 0 0 0 0 0 0 0 0.1 0"/>
<feBlend mode="normal" in2="BackgroundImageFix" result="effect1_dropShadow_5_44"/>
<feBlend mode="normal" in="SourceGraphic" in2="effect1_dropShadow_5_44" result="shape"/>
</filter>
<linearGradient id="paint0_linear_5_44" x1="58" y1="24" x2="166.5" y2="207.5" gradientUnits="userSpaceOnUse">
<stop stop-color="#B5E0F7"/>
<stop offset="1" stop-color="#7FB2E7"/>
</linearGradient>
<linearGradient id="paint1_linear_5_44" x1="50.8524" y1="55" x2="177.305" y2="171.83" gradientUnits="userSpaceOnUse">
<stop stop-color="#13E2B1"/>
<stop offset="1" stop-color="#2DB796"/>
</linearGradient>
<linearGradient id="paint2_linear_5_44" x1="58" y1="24" x2="166.5" y2="207.5" gradientUnits="userSpaceOnUse">
<stop stop-color="#B5E0F7"/>
<stop offset="1" stop-color="#7FB2E7"/>
</linearGradient>
<linearGradient id="paint3_linear_5_44" x1="50.8524" y1="55" x2="177.305" y2="171.83" gradientUnits="userSpaceOnUse">
<stop stop-color="#13E2B1"/>
<stop offset="1" stop-color="#2DB796"/>
</linearGradient>
</defs>
</svg>
